# xmcd
#
# Track frame offsets: 
#        300
#        22163
#        63440
#        89244
#        123085
#        161580
#        186312
#        211179
#        243738
#
# Disc length: 3436 seconds
#
# Revision: 2
# Processed by: cddbd v1.5.1PL2 Copyright (c) Steve Scherf et al.
# Submitted via: ExactAudioCopy v0.95a5
#
DISCID=840d6809
DTITLE=Various Artist - Namaste
DYEAR=2003
DGENRE=New Age
TTITLE0=Karunesh - Returning to Now
TTITLE1=Rasa - Prabhupada Padma
TTITLE2=Devakant - Blowing Zen
TTITLE3=Buedi Siebert - Lotus Call part 1
TTITLE4=Ben Leinbach - Horizon of Gold
TTITLE5=Benjamin Iobst - A Sound Meditation
TTITLE6=Karunesh - Calling Wisdom
TTITLE7=Gary Malkin - The End of Suffering
TTITLE8=Buedi Siebert - Inside the Heart
EXTD=YEAR: 2003
EXTT0=
EXTT1=
EXTT2=
EXTT3=
EXTT4=
EXTT5=
EXTT6=
EXTT7=
EXTT8=
PLAYORDER=
